<svg xmlns="http://www.w3.org/2000/svg" viewBox="0 0 160 160" role="img" aria-label="Support QR">
  <rect width="160" height="160" rx="14" fill="#fff"/>
  <rect x="10" y="10" width="42" height="42" rx="5" fill="#08a88a"/>
  <rect x="18" y="18" width="26" height="26" rx="3" fill="#fff"/>
  <rect x="108" y="10" width="42" height="42" rx="5" fill="#08a88a"/>
  <rect x="116" y="18" width="26" height="26" rx="3" fill="#fff"/>
  <rect x="10" y="108" width="42" height="42" rx="5" fill="#08a88a"/>
  <rect x="18" y="116" width="26" height="26" rx="3" fill="#fff"/>
  <g fill="#17202a">
    <rect x="66" y="14" width="10" height="42"/><rect x="84" y="20" width="18" height="10"/>
    <rect x="60" y="64" width="28" height="10"/><rect x="98" y="58" width="12" height="40"/>
    <rect x="122" y="62" width="16" height="16"/><rect x="18" y="68" width="30" height="10"/>
    <rect x="66" y="92" width="10" height="40"/><rect x="84" y="108" width="28" height="10"/>
    <rect x="116" y="124" width="30" height="10"/><rect x="94" y="138" width="10" height="10"/>
  </g>
  <text x="80" y="88" text-anchor="middle" fill="#08a88a" font-size="15" font-weight="800" font-family="Arial">HELP</text>
</svg>
