<svg xmlns="http://www.w3.org/2000/svg" viewBox="0 0 160 160" role="img" aria-label="Sales QR">
  <rect width="160" height="160" rx="14" fill="#fff"/>
  <rect x="10" y="10" width="42" height="42" rx="5" fill="#ee6f57"/>
  <rect x="18" y="18" width="26" height="26" rx="3" fill="#fff"/>
  <rect x="108" y="10" width="42" height="42" rx="5" fill="#ee6f57"/>
  <rect x="116" y="18" width="26" height="26" rx="3" fill="#fff"/>
  <rect x="10" y="108" width="42" height="42" rx="5" fill="#ee6f57"/>
  <rect x="18" y="116" width="26" height="26" rx="3" fill="#fff"/>
  <g fill="#17202a">
    <rect x="64" y="16" width="38" height="10"/><rect x="76" y="34" width="12" height="22"/>
    <rect x="60" y="64" width="48" height="10"/><rect x="120" y="60" width="18" height="18"/>
    <rect x="20" y="70" width="28" height="10"/><rect x="64" y="84" width="10" height="42"/>
    <rect x="86" y="92" width="18" height="10"/><rect x="116" y="96" width="28" height="10"/>
    <rect x="84" y="120" width="12" height="22"/><rect x="106" y="128" width="38" height="10"/>
  </g>
  <text x="80" y="88" text-anchor="middle" fill="#ee6f57" font-size="15" font-weight="800" font-family="Arial">BIZ</text>
</svg>
