<svg xmlns="http://www.w3.org/2000/svg" viewBox="0 0 160 160" role="img" aria-label="USDT demo QR">
  <rect width="160" height="160" rx="14" fill="#fff"/>
  <rect x="10" y="10" width="42" height="42" rx="5" fill="#26a17b"/>
  <rect x="18" y="18" width="26" height="26" rx="3" fill="#fff"/>
  <rect x="108" y="10" width="42" height="42" rx="5" fill="#26a17b"/>
  <rect x="116" y="18" width="26" height="26" rx="3" fill="#fff"/>
  <rect x="10" y="108" width="42" height="42" rx="5" fill="#26a17b"/>
  <rect x="18" y="116" width="26" height="26" rx="3" fill="#fff"/>
  <g fill="#17202a">
    <rect x="64" y="14" width="34" height="10"/><rect x="78" y="24" width="10" height="28"/>
    <rect x="58" y="62" width="52" height="10"/><rect x="122" y="62" width="18" height="18"/>
    <rect x="22" y="70" width="30" height="10"/><rect x="64" y="82" width="10" height="30"/>
    <rect x="86" y="86" width="22" height="10"/><rect x="118" y="92" width="24" height="10"/>
    <rect x="80" y="112" width="12" height="30"/><rect x="102" y="126" width="42" height="10"/>
    <rect x="60" y="142" width="18" height="8"/><rect x="124" y="112" width="10" height="10"/>
  </g>
  <text x="80" y="88" text-anchor="middle" fill="#26a17b" font-size="16" font-weight="800" font-family="Arial">DEMO</text>
</svg>
