<svg xmlns="http://www.w3.org/2000/svg" viewBox="0 0 160 160" role="img" aria-label="Alipay demo QR">
  <rect width="160" height="160" rx="14" fill="#fff"/>
  <rect x="10" y="10" width="42" height="42" rx="5" fill="#1677ff"/>
  <rect x="18" y="18" width="26" height="26" rx="3" fill="#fff"/>
  <rect x="108" y="10" width="42" height="42" rx="5" fill="#1677ff"/>
  <rect x="116" y="18" width="26" height="26" rx="3" fill="#fff"/>
  <rect x="10" y="108" width="42" height="42" rx="5" fill="#1677ff"/>
  <rect x="18" y="116" width="26" height="26" rx="3" fill="#fff"/>
  <g fill="#17202a">
    <rect x="65" y="14" width="10" height="10"/><rect x="82" y="14" width="22" height="10"/>
    <rect x="62" y="32" width="32" height="10"/><rect x="72" y="52" width="12" height="12"/>
    <rect x="98" y="63" width="12" height="34"/><rect x="118" y="62" width="22" height="10"/>
    <rect x="64" y="78" width="24" height="10"/><rect x="20" y="68" width="28" height="10"/>
    <rect x="64" y="100" width="10" height="26"/><rect x="82" y="106" width="34" height="10"/>
    <rect x="126" y="90" width="10" height="26"/><rect x="96" y="130" width="52" height="10"/>
    <rect x="62" y="142" width="20" height="8"/><rect x="116" y="118" width="12" height="12"/>
  </g>
  <text x="80" y="88" text-anchor="middle" fill="#1677ff" font-size="16" font-weight="800" font-family="Arial">DEMO</text>
</svg>
